<?xml version="1.0"?>
<svg xmlns="http://www.w3.org/2000/svg" height="512px" viewBox="0 0 512 512.0001" width="512px"><path d="m176.246094 202.417969c2.351562 0 4.707031-.824219 6.609375-2.5l.230469-.203125c4.140624-3.65625 4.53125-9.976563.875-14.117188-3.652344-4.140625-9.976563-4.53125-14.113282-.875l-.21875.191406c-4.144531 3.652344-4.542968 9.972657-.890625 14.113282 1.980469 2.242187 4.734375 3.390625 7.507813 3.390625zm0 0" fill="#ffa500"/><path d="m486.886719 106.8125c9.933593-22.980469 5.085937-50.503906-13.054688-68.644531-18.144531-18.144531-45.667969-22.992188-68.648437-13.058594-14.9375-20.089844-41.199219-29.65625-65.980469-23.015625-24.78125 6.636719-42.738281 28.054688-45.628906 52.921875-24.867188 2.894531-46.285157 20.851563-52.925781 45.628906-3.960938 14.78125.328124 29.644531 5.09375 40.167969-16.773438 4.25-34.183594 12.601562-52.050782 25.070312-4.53125 3.160157-5.640625 9.394532-2.480468 13.921876 3.160156 4.53125 9.394531 5.640624 13.925781 2.480468 47.617187-33.230468 89.070312-32.769531 123.207031 1.367188 37.972656 37.972656 34.363281 84.726562-10.703125 138.996094l-25.796875-25.796876c-3.90625-3.902343-10.234375-3.902343-14.140625 0-3.90625 3.90625-3.90625 10.238282 0 14.144532l26.613281 26.613281c-35.242187 37.128906-87.210937 74.921875-146.519531 106.511719l-19.875-19.875c-3.902344-3.90625-10.234375-3.90625-14.140625 0s-3.90625 10.238281 0 14.144531l15.34375 15.34375c-28.988281 14.40625-57.128906 25.851563-79.578125 32.339844-24.441406 7.058593-35.53125 6.332031-38.769531 5.171875-1.011719-2.851563-1.792969-11.9375 3.117187-31.328125 4.878907-19.28125 13.878907-43.375 26.027344-69.675781 21.441406-46.425782 48.851563-91.992188 77.796875-129.851563l13.558594 13.554687c1.953125 1.953126 4.511718 2.929688 7.070312 2.929688 2.5625 0 5.121094-.976562 7.074219-2.929688 3.902344-3.902343 3.902344-10.234374 0-14.140624l-15.1875-15.1875c4.617187-5.597657 9.257813-10.984376 13.902344-16.125 3.703125-4.09375 3.386719-10.417969-.710938-14.125-4.097656-3.703126-10.421875-3.382813-14.125.710937-40.007812 44.257813-79.445312 105.570313-108.199219 168.21875-12.671874 27.609375-22.007812 52.964844-26.996093 73.324219-6.007813 24.503906-5.433594 39.867187 1.800781 48.351562.34375.398438.71875.773438 1.121094 1.117188 3.371094 2.875 8.851562 5.910156 20.199218 5.910156 7.964844 0 18.816407-1.492188 33.855469-5.585938 23.460938-6.378906 52.121094-17.707031 82.882813-32.757812 71.84375-35.148438 136.769531-80.988281 178.128906-125.761719 25.910156-28.050781 42.359375-55.363281 49-81.308593 7.472656 3.328124 17.175781 6.390624 27.589844 6.390624 4.140625 0 8.398437-.484374 12.667968-1.628906 24.78125-6.640625 42.738282-28.054687 45.628907-52.925781 24.867187-2.886719 46.285156-20.847656 52.925781-45.628906s-2.925781-51.042969-23.019531-65.980469zm3.699219 60.804688c-5.105469 19.058593-23.097657 32.167968-42.753907 31.160156-2.816406-.132813-5.578125.917968-7.582031 2.917968-2 2-3.058594 4.753907-2.914062 7.578126 1 19.667968-12.105469 37.648437-31.160157 42.757812-10.285156 2.753906-22.636719-1.128906-31.847656-6.140625.8125-14.90625-1.820313-29.136719-7.878906-42.605469 12.1875-10.566406 30.722656-21.234375 46.300781-23.335937 5.476562-.738281 9.3125-5.773438 8.574219-11.246094-.734375-5.472656-5.773438-9.3125-11.246094-8.574219-18.90625 2.550782-39.488281 14.023438-53.789063 25.597656-1.804687-2.535156-3.746093-5.039062-5.824218-7.511718 22.648437-17.773438 44.097656-40.285156 58.210937-61.238282 3.082031-4.582031 1.871094-10.792968-2.710937-13.878906-4.582032-3.085937-10.796875-1.875-13.882813 2.707032-13.355469 19.835937-33.964843 41.269531-55.660156 57.996093-2.175781-1.929687-4.378906-3.746093-6.605469-5.460937 11.996094-14.332032 24.230469-35.734375 26.871094-55.339844.738281-5.472656-3.101562-10.507812-8.574219-11.246094-5.46875-.738281-10.507812 3.101563-11.246093 8.574219-2.152344 15.960937-13.289063 35.019531-24.105469 47.183594-14.59375-7.394531-30.082031-10.695313-46.285157-9.882813-5.3125-9.546875-9.207031-21.738281-6.507812-31.804687 5.105469-19.054688 23.113281-32.171875 42.753906-31.160157 2.8125.132813 5.578125-.917968 7.582032-2.917968 2-2 3.058593-4.753906 2.914062-7.578125-1-19.667969 12.105469-37.648438 31.160156-42.757813 19.0625-5.109375 39.398438 3.914063 48.363282 21.449219 1.289062 2.515625 3.582031 4.371094 6.3125 5.105469 2.734374.730468 5.648437.273437 8.023437-1.265625 16.535156-10.699219 38.660156-8.339844 52.609375 5.609375 13.949219 13.949218 16.308594 36.074218 5.609375 52.609375-1.539063 2.375-1.996094 5.289062-1.265625 8.019531s2.585938 5.027344 5.105469 6.3125c17.535156 8.972656 26.554687 29.3125 21.449219 48.367188zm0 0" fill="#ffa500"/><path d="m130.933594 347.347656c-3.90625 3.90625-3.90625 10.238282 0 14.140625l27.457031 27.460938c1.953125 1.953125 4.511719 2.925781 7.070313 2.925781 2.558593 0 5.117187-.972656 7.070312-2.925781 3.90625-3.90625 3.90625-10.238281 0-14.144531l-27.457031-27.457032c-3.90625-3.90625-10.234375-3.90625-14.140625 0zm0 0" fill="#ffa500"/><path d="m305.789062 239.253906c1.953126 1.953125 4.511719 2.929688 7.070313 2.929688s5.117187-.976563 7.070313-2.929688c3.90625-3.902344 3.90625-10.234375 0-14.140625l-28.90625-28.910156c-3.90625-3.90625-10.238282-3.90625-14.144532 0s-3.90625 10.238281 0 14.144531zm0 0" fill="#ffa500"/><path d="m219.011719 224.019531c-3.90625-3.902343-10.238281-3.902343-14.144531 0-3.90625 3.90625-3.90625 10.238281 0 14.144531l18.304687 18.300782c1.953125 1.953125 4.511719 2.929687 7.070313 2.929687 2.558593 0 5.117187-.976562 7.070312-2.929687 3.90625-3.90625 3.90625-10.238282 0-14.144532zm0 0" fill="#ffa500"/><path d="m423.222656 79.78125c-4.484375-3.230469-10.730468-2.210938-13.960937 2.269531l-.15625.214844c-3.226563 4.484375-2.210938 10.730469 2.269531 13.960937 1.769531 1.273438 3.8125 1.886719 5.835938 1.886719 3.105468 0 6.171874-1.441406 8.125-4.15625l.15625-.21875c3.226562-4.480469 2.210937-10.730469-2.269532-13.957031zm0 0" fill="#ffa500"/><path d="m103.273438 403.742188c-3.90625 3.902343-3.90625 10.234374 0 14.140624l.191406.191407c1.949218 1.953125 4.511718 2.929687 7.070312 2.929687s5.117188-.976562 7.070313-2.929687c3.90625-3.90625 3.90625-10.238281 0-14.144531l-.191407-.1875c-3.90625-3.90625-10.234374-3.90625-14.140624 0zm0 0" fill="#ffa500"/><path d="m210.605469 329.132812c-3.902344 3.90625-3.902344 10.238282 0 14.140626l18.003906 18.003906c1.953125 1.953125 4.511719 2.929687 7.070313 2.929687 2.558593 0 5.117187-.976562 7.070312-2.929687 3.90625-3.90625 3.90625-10.238282 0-14.144532l-18-18c-3.90625-3.90625-10.234375-3.902343-14.144531 0zm0 0" fill="#ffa500"/></svg>
